HIERARCHY
ROOT Hips
{
	OFFSET 0.000000 0.000000 0.000000
	CHANNELS 6 Xposition Yposition Zposition Xrotation Yrotation Zrotation
	JOINT LeftUpLeg_virtual
	{
		OFFSET 0.000000 0.000000 0.000000
		CHANNELS 3 Xrotation Yrotation Zrotation
		JOINT LeftUpLeg
		{
			OFFSET 13.026900 -6.336304 -1.092800
			CHANNELS 3 Xrotation Yrotation Zrotation
			JOINT LeftLeg
			{
				OFFSET 0.524474 -46.096886 9.782700
				CHANNELS 3 Xrotation Yrotation Zrotation
				JOINT LeftFoot
				{
					OFFSET -0.524474 -53.427422 -12.948200
					CHANNELS 3 Xrotation Yrotation Zrotation
					JOINT LeftToeBase
					{
						OFFSET 0.192200 -14.009700 16.364100
						CHANNELS 3 Xrotation Yrotation Zrotation
						JOINT LeftToe_End
						{
							OFFSET -1.784700 -0.561700 9.474800
							CHANNELS 3 Xrotation Yrotation Zrotation
							End Site
							{
								OFFSET 0 0 0
							}
						}
					}
				}
			}
		}
	}
	JOINT RightUpLeg_virtual
	{
		OFFSET 0.000000 0.000000 0.000000
		CHANNELS 3 Xrotation Yrotation Zrotation
		JOINT RightUpLeg
		{
			OFFSET -12.883000 -6.336304 -1.092800
			CHANNELS 3 Xrotation Yrotation Zrotation
			JOINT RightLeg
			{
				OFFSET -0.524587 -46.096825 9.782800
				CHANNELS 3 Xrotation Yrotation Zrotation
				JOINT RightFoot
				{
					OFFSET 0.524587 -53.427383 -12.948300
					CHANNELS 3 Xrotation Yrotation Zrotation
					JOINT RightToeBase
					{
						OFFSET -0.192200 -14.009700 16.364100
						CHANNELS 3 Xrotation Yrotation Zrotation
						JOINT RightToe_End
						{
							OFFSET 1.784700 -0.561700 9.474800
							CHANNELS 3 Xrotation Yrotation Zrotation
							End Site
							{
								OFFSET 0 0 0
							}
						}
					}
				}
			}
		}
	}
	JOINT Spine_virtual
	{
		OFFSET 0.000000 0.000000 0.000000
		CHANNELS 3 Xrotation Yrotation Zrotation
		JOINT Spine
		{
			OFFSET 0.072000 7.257294 -0.789700
			CHANNELS 3 Xrotation Yrotation Zrotation
			JOINT Spine1
			{
				OFFSET 0.000000 12.508769 -0.658067
				CHANNELS 3 Xrotation Yrotation Zrotation
				JOINT Spine1_split
				{
					OFFSET 0.000000 12.508769 -0.658067
					CHANNELS 3 Xrotation Yrotation Zrotation
					JOINT Spine2
					{
						OFFSET 0.000000 12.508769 -0.658067
						CHANNELS 3 Xrotation Yrotation Zrotation
						JOINT Neck_virtual
						{
							OFFSET 0.000000 0.000000 0.000000
							CHANNELS 3 Xrotation Yrotation Zrotation
							JOINT Neck
							{
								OFFSET 0.000000 14.033295 7.520400
								CHANNELS 3 Xrotation Yrotation Zrotation
								JOINT Head
								{
									OFFSET 0.000000 8.198502 5.703100
									CHANNELS 3 Xrotation Yrotation Zrotation
									JOINT HeadTop_End
									{
										OFFSET 0.000000 17.760803 13.332701
										CHANNELS 3 Xrotation Yrotation Zrotation
										End Site
										{
											OFFSET 0 0 0
										}
									}
								}
							}
						}
						JOINT LeftShoulder_virtual
						{
							OFFSET 0.000000 0.000000 0.000000
							CHANNELS 3 Xrotation Yrotation Zrotation
							JOINT LeftShoulder
							{
								OFFSET 6.292450 5.785301 -0.669000
								CHANNELS 3 Xrotation Yrotation Zrotation
								JOINT LeftShoulder_split
								{
									OFFSET 6.292450 5.785301 -0.669000
									CHANNELS 3 Xrotation Yrotation Zrotation
									JOINT LeftArm
									{
										OFFSET 13.907140 -6.093903 1.965100
										CHANNELS 3 Xrotation Yrotation Zrotation
										JOINT LeftForeArm
										{
											OFFSET 34.140198 0.000000 0.000000
											CHANNELS 3 Xrotation Yrotation Zrotation
											JOINT LeftHand
											{
												OFFSET 40.960209 0.000000 0.000000
												CHANNELS 3 Xrotation Yrotation Zrotation
												End Site
												{
													OFFSET 0 0 0
												}
											}
										}
									}
								}
							}
						}
						JOINT RightShoulder_virtual
						{
							OFFSET 0.000000 0.000000 0.000000
							CHANNELS 3 Xrotation Yrotation Zrotation
							JOINT RightShoulder
							{
								OFFSET -6.292450 5.785301 -0.669000
								CHANNELS 3 Xrotation Yrotation Zrotation
								JOINT RightShoulder_split
								{
									OFFSET -6.292450 5.785301 -0.669000
									CHANNELS 3 Xrotation Yrotation Zrotation
									JOINT RightArm
									{
										OFFSET -13.907140 -6.093903 1.965100
										CHANNELS 3 Xrotation Yrotation Zrotation
										JOINT RightForeArm
										{
											OFFSET -34.140198 0.000000 0.000000
											CHANNELS 3 Xrotation Yrotation Zrotation
											JOINT RightHand
											{
												OFFSET -40.960209 0.000000 0.000000
												CHANNELS 3 Xrotation Yrotation Zrotation
												End Site
												{
													OFFSET 0 0 0
												}
											}
										}
									}
								}
							}
						}
					}
				}
			}
		}
	}
}
MOTION
Frames: 6
Frame Time: 0.03333333
-1.090928 96.527710 0.546677 0.000000 0.000000 0.000000 1.314799 -61.874281 4.994191 -36.443232 8.736074 27.614557 40.747693 -6.652821 -7.164357 -3.334327 -2.577600 -9.914814 -0.323293 0.497062 0.152989 0.000000 0.000000 0.000000 -1.441010 -61.295791 3.835788 -34.748441 -6.523334 -29.200746 49.829987 5.160215 -4.503007 -15.940659 1.227463 24.669967 0.911986 0.236634 0.231167 0.000000 0.000000 0.000000 -0.649585 -61.508893 2.704580 12.260318 2.171778 -2.650296 8.141015 0.749513 -5.639041 0.176291 -0.354261 1.096393 0.000000 0.000000 0.000000 7.988433 0.324210 -4.365917 -21.029770 21.115590 9.731818 3.557115 27.426278 -2.490976 0.000000 0.000000 0.000000 9.692388 0.267356 -4.982769 -5.192020 -16.300960 -1.597680 -1.937382 -3.757929 1.227283 -23.979700 9.287612 -32.727343 4.204780 -42.110558 0.520477 0.000000 0.000000 0.000000 9.128822 0.540704 -5.428344 -5.249996 14.187331 1.459153 2.785100 -2.944922 3.684750 -32.257986 -22.290940 35.254674 165.050401 69.715645 -161.989097 0.000000 0.000000 0.000000 
-1.450925 96.247963 0.801300 0.000000 0.000000 0.000000 1.080243 -61.661186 4.700670 -36.371676 9.154198 27.803496 41.433594 -7.236752 -7.021294 -4.111957 -2.818464 -10.251840 -0.767809 0.423841 0.387664 0.000000 0.000000 0.000000 -1.844307 -61.293025 3.317618 -34.295203 -6.415804 -29.248427 50.702472 5.174999 -4.553521 -16.579009 0.959665 24.265801 1.844027 0.265985 0.234213 0.000000 0.000000 0.000000 -0.907432 -61.526153 2.529022 12.221433 1.981196 -2.587309 7.859716 0.735711 -5.671031 -0.628852 -1.067535 1.636865 0.000000 0.000000 0.000000 7.718313 0.313506 -4.383744 -21.022132 20.559672 10.045695 3.817655 26.443393 -2.344306 0.000000 0.000000 0.000000 9.419767 0.283038 -4.985933 -5.188770 -16.031482 -1.568206 -0.460254 -5.060521 1.020461 -25.324084 9.264653 -33.804901 5.459625 -41.736998 1.628215 0.000000 0.000000 0.000000 8.722349 0.531853 -5.380937 -5.345348 14.072828 1.371322 4.036479 -2.522735 1.911943 -30.721696 -21.568481 35.183831 167.224928 66.495805 -164.170659 0.000000 0.000000 0.000000 
-2.033882 95.949486 1.027660 0.000000 0.000000 0.000000 0.104691 -61.621393 3.604400 -36.123983 9.294328 28.073905 42.613895 -7.945841 -6.882371 -5.476549 -2.775814 -10.340316 -1.247295 0.387751 0.621251 0.000000 0.000000 0.000000 -2.670689 -61.218009 2.187316 -32.800576 -6.324225 -29.214474 51.448854 5.370015 -4.742452 -17.378896 0.570392 24.480417 1.876101 0.207480 0.174421 0.000000 0.000000 0.000000 -1.827234 -61.371900 1.565311 11.997047 1.857589 -2.324208 7.467539 0.771719 -5.464790 -0.715187 -1.065201 2.003480 0.000000 0.000000 0.000000 7.259488 0.324015 -4.256319 -20.132690 19.539795 10.289547 3.736195 24.917773 -1.684906 0.000000 0.000000 0.000000 8.929414 0.332095 -4.749227 -5.130863 -14.876704 -1.060812 0.439730 -5.614361 0.508513 -25.275979 9.655789 -33.103946 6.663818 -44.343982 3.225555 0.000000 0.000000 0.000000 8.126423 0.494496 -5.128918 -5.400762 12.731799 0.517603 5.711090 -2.243607 0.776497 -25.290942 -20.028997 35.512407 163.264894 62.785578 -160.623523 0.000000 0.000000 0.000000 
-2.771575 95.811974 1.212845 0.000000 0.000000 0.000000 -1.515743 -61.705425 1.844744 -35.484773 9.075450 28.185339 43.687273 -8.643045 -6.726855 -6.922602 -2.467586 -10.092846 -1.749976 0.397762 0.785383 0.000000 0.000000 0.000000 -3.782803 -60.910630 0.664192 -30.273109 -6.419825 -29.129104 51.468805 5.546512 -4.933620 -18.143380 -0.011213 25.007249 1.259636 0.084538 0.117757 0.000000 0.000000 0.000000 -3.144658 -60.913594 0.040827 11.666180 1.802971 -1.964331 7.020249 0.835020 -5.048576 -0.062304 -0.461232 2.179448 0.000000 0.000000 0.000000 6.675679 0.372049 -3.973646 -18.440496 18.188179 10.459726 3.459900 23.205346 -0.778616 0.000000 0.000000 0.000000 8.239556 0.429043 -4.261303 -5.092073 -12.753857 -0.109270 0.775471 -5.531356 0.218932 -23.524387 11.023060 -30.544626 7.660074 -50.062643 5.063315 0.000000 0.000000 0.000000 7.394857 0.438920 -4.687976 -5.515093 10.190955 -0.960136 7.056578 -2.087833 0.026052 -17.496487 -18.167492 36.327000 155.602296 59.808968 -153.832034 0.000000 0.000000 0.000000 
-3.570939 96.078606 1.497772 0.000000 0.000000 0.000000 -3.509357 -61.770387 -0.301017 -34.285463 8.527815 28.001887 44.100090 -9.252176 -6.488505 -8.052989 -1.960901 -9.537096 -2.157530 0.439702 0.808310 0.000000 0.000000 0.000000 -5.070406 -60.347631 -0.992991 -26.684000 -6.880768 -28.884737 50.065649 5.423139 -4.939810 -18.583556 -0.771321 25.387335 0.745873 -0.069531 0.098703 0.000000 0.000000 0.000000 -4.661760 -60.198077 -1.760370 11.238883 1.759811 -1.613861 6.496378 0.894349 -4.464507 1.106253 0.340958 2.030485 0.000000 0.000000 0.000000 6.019621 0.434808 -3.542056 -15.893307 16.809145 10.459783 3.176742 21.527086 0.114107 0.000000 0.000000 0.000000 7.421338 0.525370 -3.552581 -5.195973 -9.727814 1.096021 0.426294 -4.759850 -0.223587 -20.576064 13.622624 -26.242753 7.735859 -58.426121 6.382994 0.000000 0.000000 0.000000 6.502464 0.379188 -4.066628 -5.786730 6.630929 -2.876980 7.317523 -2.494918 0.066950 -9.241245 -16.208411 37.316537 145.440819 57.879078 -145.009301 0.000000 0.000000 0.000000 
-4.393626 96.935478 1.842125 0.000000 0.000000 0.000000 -5.515984 -61.490445 -2.428166 -32.669194 7.748354 27.557771 43.622291 -9.745694 -6.069945 -8.508788 -1.414610 -8.843333 -2.267865 0.515046 0.658763 0.000000 0.000000 0.000000 -6.397909 -59.494049 -2.613006 -22.323608 -7.784561 -28.307465 46.845136 4.869827 -4.652614 -18.410736 -1.576779 25.383602 0.699903 -0.206759 0.112859 0.000000 0.000000 0.000000 -6.084157 -59.145333 -3.456745 10.653681 1.653139 -1.350311 5.843649 0.897009 -3.791385 1.432254 1.026331 1.635488 0.000000 0.000000 0.000000 5.407699 0.487356 -3.011260 -12.518951 15.624430 10.178485 2.967554 20.028792 0.788383 0.000000 0.000000 0.000000 6.563303 0.598221 -2.715662 -5.518433 -6.014509 2.492260 -0.071916 -3.492915 -0.654938 -17.485446 17.665297 -20.512632 5.348888 -67.887286 5.452873 0.000000 0.000000 0.000000 5.518924 0.282822 -3.315179 -6.299149 2.206096 -5.069816 6.663030 -3.164310 0.396577 -2.209283 -14.485125 38.226062 134.460689 56.302154 -135.589213 0.000000 0.000000 0.000000 
